<svg xmlns="http://www.w3.org/2000/svg" xmlns:xlink="http://www.w3.org/1999/xlink" width="40" zoomAndPan="magnify" viewBox="0 0 30 30.000001" height="40" preserveAspectRatio="xMidYMid meet" version="1.0"><path fill="#ffffff" d="M 17.421875 14.523438 L 24.671875 7.273438 C 25.335938 6.605469 25.339844 5.523438 24.671875 4.855469 C 24.007812 4.191406 22.921875 4.191406 22.253906 4.859375 L 15.007812 12.105469 L 7.757812 4.859375 C 7.089844 4.191406 6.007812 4.191406 5.339844 4.855469 C 4.675781 5.523438 4.675781 6.605469 5.34375 7.273438 L 12.589844 14.523438 L 5.34375 21.769531 C 4.675781 22.4375 4.671875 23.519531 5.339844 24.1875 C 6.007812 24.855469 7.089844 24.855469 7.757812 24.1875 L 15.007812 16.9375 L 22.253906 24.1875 C 22.921875 24.855469 24.003906 24.855469 24.671875 24.1875 C 25.335938 23.523438 25.339844 22.4375 24.671875 21.769531 Z M 17.421875 14.523438 " fill-opacity="1" fill-rule="evenodd"/></svg>