<svg xmlns="http://www.w3.org/2000/svg" xmlns:xlink="http://www.w3.org/1999/xlink" width="40" zoomAndPan="magnify" viewBox="0 0 30 30.000001" height="40" preserveAspectRatio="xMidYMid meet" version="1.0"><defs><clipPath id="da88c8cbcb"><path d="M 1.117188 0.660156 L 28.699219 0.660156 L 28.699219 28.242188 L 1.117188 28.242188 Z M 1.117188 0.660156 " clip-rule="nonzero"/></clipPath></defs><g clip-path="url(#da88c8cbcb)"><path fill="#ffffff" d="M 28.6875 27.574219 C 28.867188 27.753906 28.867188 28.046875 28.6875 28.226562 C 28.597656 28.316406 28.476562 28.363281 28.359375 28.363281 C 28.242188 28.363281 28.125 28.316406 28.035156 28.226562 L 14.992188 15.183594 L 1.949219 28.226562 C 1.859375 28.316406 1.742188 28.363281 1.625 28.363281 C 1.507812 28.363281 1.386719 28.316406 1.296875 28.226562 C 1.117188 28.046875 1.117188 27.753906 1.296875 27.574219 L 14.339844 14.53125 L 1.296875 1.492188 C 1.117188 1.3125 1.117188 1.019531 1.296875 0.839844 C 1.476562 0.660156 1.769531 0.660156 1.949219 0.839844 L 14.992188 13.878906 L 28.035156 0.839844 C 28.214844 0.660156 28.507812 0.660156 28.6875 0.839844 C 28.867188 1.019531 28.867188 1.3125 28.6875 1.492188 L 15.644531 14.53125 Z M 28.6875 27.574219 " fill-opacity="1" fill-rule="nonzero"/></g></svg>