<svg xmlns="http://www.w3.org/2000/svg" xmlns:xlink="http://www.w3.org/1999/xlink" width="40" zoomAndPan="magnify" viewBox="0 0 30 30.000001" height="40" preserveAspectRatio="xMidYMid meet" version="1.0"><path fill="#ffc61e" d="M 21.953125 9.378906 C 20.792969 1.222656 9.207031 1.21875 8.046875 9.378906 C 0.46875 9.878906 0.625 20.800781 8.238281 21.054688 C 8.238281 21.054688 11.28125 21.054688 11.28125 21.054688 C 12.382812 21.050781 12.375 19.382812 11.28125 19.375 C 11.28125 19.375 8.238281 19.375 8.238281 19.375 C 5.949219 19.375 4.082031 17.511719 4.082031 15.21875 C 4.066406 12.664062 6.347656 10.800781 8.835938 11.054688 C 9.300781 11.054688 9.675781 10.679688 9.675781 10.214844 C 9.925781 3.179688 20.074219 3.179688 20.324219 10.214844 C 20.324219 10.679688 20.699219 11.054688 21.164062 11.054688 C 23.648438 10.800781 25.933594 12.664062 25.917969 15.21875 C 25.917969 17.511719 24.050781 19.375 21.761719 19.375 L 18.71875 19.375 C 17.621094 19.378906 17.625 21.054688 18.71875 21.054688 C 18.71875 21.054688 21.761719 21.054688 21.761719 21.054688 C 29.371094 20.800781 29.535156 9.878906 21.953125 9.378906 Z M 21.953125 9.378906 " fill-opacity="1" fill-rule="nonzero"/><path fill="#ffc61e" d="M 17.644531 23.058594 L 15.839844 24.867188 L 15.839844 13.097656 C 15.835938 12.003906 14.164062 11.992188 14.160156 13.097656 C 14.160156 13.097656 14.160156 24.867188 14.160156 24.867188 L 12.351562 23.058594 C 11.574219 22.285156 10.390625 23.46875 11.164062 24.246094 C 11.164062 24.246094 14.40625 27.488281 14.40625 27.488281 C 14.640625 27.726562 15.011719 27.800781 15.320312 27.667969 C 15.378906 27.808594 18.730469 24.304688 18.835938 24.246094 C 19.605469 23.46875 18.425781 22.285156 17.644531 23.058594 Z M 17.644531 23.058594 " fill-opacity="1" fill-rule="nonzero"/></svg>