<svg xmlns="http://www.w3.org/2000/svg" xmlns:xlink="http://www.w3.org/1999/xlink" width="40" zoomAndPan="magnify" viewBox="0 0 30 30.000001" height="40" preserveAspectRatio="xMidYMid meet" version="1.0"><defs><clipPath id="ba3aa92ed2"><path d="M 0.484375 4.972656 L 29.515625 4.972656 L 29.515625 8 L 0.484375 8 Z M 0.484375 4.972656 " clip-rule="nonzero"/></clipPath><clipPath id="9ca21e75c7"><path d="M 0.484375 13 L 29.515625 13 L 29.515625 16 L 0.484375 16 Z M 0.484375 13 " clip-rule="nonzero"/></clipPath><clipPath id="bff8e44203"><path d="M 0.484375 21 L 29.515625 21 L 29.515625 23.84375 L 0.484375 23.84375 Z M 0.484375 21 " clip-rule="nonzero"/></clipPath></defs><g clip-path="url(#ba3aa92ed2)"><path fill="#ffffff" d="M 29.515625 6.21875 C 29.515625 6.90625 28.957031 7.464844 28.269531 7.464844 L 1.730469 7.464844 C 1.042969 7.464844 0.484375 6.90625 0.484375 6.21875 C 0.484375 5.535156 1.042969 4.976562 1.730469 4.976562 L 28.269531 4.976562 C 28.957031 4.976562 29.515625 5.535156 29.515625 6.21875 Z M 29.515625 6.21875 " fill-opacity="1" fill-rule="evenodd"/></g><g clip-path="url(#9ca21e75c7)"><path fill="#ffffff" d="M 29.515625 14.515625 C 29.515625 15.203125 28.957031 15.757812 28.269531 15.757812 L 1.730469 15.757812 C 1.042969 15.757812 0.484375 15.203125 0.484375 14.515625 C 0.484375 13.828125 1.042969 13.269531 1.730469 13.269531 L 28.269531 13.269531 C 28.957031 13.269531 29.515625 13.828125 29.515625 14.515625 Z M 29.515625 14.515625 " fill-opacity="1" fill-rule="evenodd"/></g><g clip-path="url(#bff8e44203)"><path fill="#ffffff" d="M 29.515625 22.808594 C 29.515625 23.496094 28.957031 24.054688 28.269531 24.054688 L 1.730469 24.054688 C 1.042969 24.054688 0.484375 23.496094 0.484375 22.808594 C 0.484375 22.121094 1.042969 21.566406 1.730469 21.566406 L 28.269531 21.566406 C 28.957031 21.566406 29.515625 22.121094 29.515625 22.808594 Z M 29.515625 22.808594 " fill-opacity="1" fill-rule="evenodd"/></g></svg>