<svg xmlns="http://www.w3.org/2000/svg" xmlns:xlink="http://www.w3.org/1999/xlink" width="40" zoomAndPan="magnify" viewBox="0 0 30 30.000001" height="40" preserveAspectRatio="xMidYMid meet" version="1.0"><defs><clipPath id="3d589033a1"><path d="M 0.484375 12 L 29.515625 12 L 29.515625 17 L 0.484375 17 Z M 0.484375 12 " clip-rule="nonzero"/></clipPath><clipPath id="2eef3bb244"><path d="M 0.484375 21 L 29.515625 21 L 29.515625 24.550781 L 0.484375 24.550781 Z M 0.484375 21 " clip-rule="nonzero"/></clipPath><clipPath id="8f672a0c69"><path d="M 0.484375 4.226562 L 29.515625 4.226562 L 29.515625 8 L 0.484375 8 Z M 0.484375 4.226562 " clip-rule="nonzero"/></clipPath></defs><g clip-path="url(#3d589033a1)"><path fill="#ffc61e" d="M 27.703125 12.699219 L 2.296875 12.699219 C 1.296875 12.699219 0.484375 13.511719 0.484375 14.515625 C 0.484375 15.515625 1.296875 16.328125 2.296875 16.328125 L 27.703125 16.328125 C 28.703125 16.328125 29.515625 15.515625 29.515625 14.515625 C 29.515625 13.511719 28.703125 12.699219 27.703125 12.699219 Z M 27.703125 12.699219 " fill-opacity="1" fill-rule="nonzero"/></g><g clip-path="url(#2eef3bb244)"><path fill="#ffc61e" d="M 27.703125 21.167969 L 2.296875 21.167969 C 1.296875 21.167969 0.484375 21.980469 0.484375 22.980469 C 0.484375 23.984375 1.296875 24.796875 2.296875 24.796875 L 27.703125 24.796875 C 28.703125 24.796875 29.515625 23.984375 29.515625 22.980469 C 29.515625 21.980469 28.703125 21.167969 27.703125 21.167969 Z M 27.703125 21.167969 " fill-opacity="1" fill-rule="nonzero"/></g><g clip-path="url(#8f672a0c69)"><path fill="#ffc61e" d="M 2.296875 7.859375 L 27.703125 7.859375 C 28.703125 7.859375 29.515625 7.046875 29.515625 6.046875 C 29.515625 5.042969 28.703125 4.230469 27.703125 4.230469 L 2.296875 4.230469 C 1.296875 4.230469 0.484375 5.042969 0.484375 6.046875 C 0.484375 7.046875 1.296875 7.859375 2.296875 7.859375 Z M 2.296875 7.859375 " fill-opacity="1" fill-rule="nonzero"/></g></svg>