<svg xmlns="http://www.w3.org/2000/svg" xmlns:xlink="http://www.w3.org/1999/xlink" width="40" zoomAndPan="magnify" viewBox="0 0 30 30.000001" height="40" preserveAspectRatio="xMidYMid meet" version="1.0"><defs><clipPath id="c632d53247"><path d="M 0.484375 6.125 L 29.515625 6.125 L 29.515625 22.816406 L 0.484375 22.816406 Z M 0.484375 6.125 " clip-rule="nonzero"/></clipPath></defs><g clip-path="url(#c632d53247)"><path fill="#ffffff" d="M 28.734375 22.867188 L 1.265625 22.867188 C 1.058594 22.867188 0.875 22.792969 0.726562 22.644531 C 0.578125 22.492188 0.503906 22.3125 0.503906 22.101562 C 0.503906 21.894531 0.578125 21.710938 0.726562 21.5625 C 0.875 21.414062 1.058594 21.339844 1.265625 21.339844 L 28.734375 21.339844 C 28.941406 21.339844 29.125 21.414062 29.273438 21.5625 C 29.421875 21.710938 29.496094 21.894531 29.496094 22.101562 C 29.496094 22.3125 29.421875 22.492188 29.273438 22.644531 C 29.125 22.792969 28.941406 22.867188 28.734375 22.867188 Z M 28.734375 15.257812 L 1.265625 15.257812 C 1.058594 15.257812 0.875 15.183594 0.726562 15.035156 C 0.578125 14.882812 0.503906 14.703125 0.503906 14.492188 C 0.503906 14.285156 0.578125 14.101562 0.726562 13.953125 C 0.875 13.804688 1.058594 13.730469 1.265625 13.730469 L 28.734375 13.730469 C 28.941406 13.730469 29.125 13.804688 29.273438 13.953125 C 29.421875 14.101562 29.496094 14.285156 29.496094 14.492188 C 29.496094 14.703125 29.421875 14.882812 29.273438 15.035156 C 29.125 15.183594 28.941406 15.257812 28.734375 15.257812 Z M 28.734375 7.648438 L 1.265625 7.648438 C 1.058594 7.648438 0.875 7.574219 0.726562 7.425781 C 0.578125 7.277344 0.503906 7.097656 0.503906 6.886719 C 0.503906 6.675781 0.578125 6.496094 0.726562 6.347656 C 0.875 6.199219 1.058594 6.125 1.265625 6.125 L 28.734375 6.125 C 28.941406 6.125 29.125 6.199219 29.273438 6.347656 C 29.421875 6.496094 29.496094 6.675781 29.496094 6.886719 C 29.496094 7.097656 29.421875 7.277344 29.273438 7.425781 C 29.125 7.574219 28.941406 7.648438 28.734375 7.648438 Z M 28.734375 7.648438 " fill-opacity="1" fill-rule="nonzero"/></g></svg>